<?xml version="1.0" encoding="UTF-8"?>
<svg version="1.1" xmlns="http://www.w3.org/2000/svg" width="367" height="261">
<path d="M0 0 C1.16509094 -0.00860046 2.33018188 -0.01720093 3.53057861 -0.02606201 C5.45763893 -0.03245193 5.45763893 -0.03245193 7.42362976 -0.03897095 C8.78525502 -0.04687137 10.14687819 -0.05514028 11.50849915 -0.06375122 C15.9862925 -0.08997753 20.46409525 -0.10527909 24.94194031 -0.11953735 C26.48280023 -0.12489672 28.02366009 -0.13027422 29.56451988 -0.13566971 C35.97347484 -0.15729901 42.38242727 -0.1760362 48.79140949 -0.1872921 C57.97962876 -0.20353467 67.16742535 -0.23671883 76.35548526 -0.29369295 C82.8141491 -0.33237849 89.27269982 -0.35192309 95.73147649 -0.35721266 C99.58997835 -0.36086799 103.44802947 -0.37290753 107.30640602 -0.4053154 C110.93694832 -0.43537241 114.56676662 -0.44171699 118.19740677 -0.42993164 C120.16339132 -0.42960542 122.12933103 -0.45408687 124.09515381 -0.47930908 C133.70420672 -0.4111972 133.70420672 -0.4111972 136.78463745 2.56536865 C139.65379576 6.85460571 139.65326321 9.95730766 139.62968445 15.00009155 C139.62983047 15.80992996 139.6299765 16.61976837 139.63012695 17.45414734 C139.62942883 20.13794611 139.6216411 22.82167596 139.61381531 25.50546265 C139.61195077 27.36348431 139.61052704 29.22150647 139.60952759 31.07952881 C139.60570521 35.97532503 139.59587729 40.8710917 139.58482361 45.76687622 C139.5746035 50.76046346 139.57002868 55.75405547 139.56498718 60.74765015 C139.55425479 70.54974648 139.5371817 80.35182086 139.51615906 90.15390015 C140.14264343 90.21448608 140.76912781 90.27507202 141.41459656 90.3374939 C142.640495 90.46317749 142.640495 90.46317749 143.89115906 90.59140015 C144.70326843 90.67261108 145.51537781 90.75382202 146.35209656 90.8374939 C148.51615906 91.15390015 148.51615906 91.15390015 150.51615906 92.15390015 C151.17639443 116.87209677 151.19810936 141.04173167 134.01615906 160.71640015 C132.54308205 162.22238094 131.04414132 163.70365733 129.51615906 165.15390015 C128.82264343 165.82034546 128.12912781 166.48679077 127.41459656 167.1734314 C123.37902459 170.87400415 119.29653702 173.5057771 114.51615906 176.15390015 C115.36323425 176.16848267 116.21030945 176.18306519 117.08305359 176.1980896 C120.2479784 176.25941191 123.4122741 176.33361367 126.57670593 176.41635132 C127.94215156 176.44945401 129.30772919 176.477531 130.67338562 176.50033569 C132.6446913 176.53415006 134.61562097 176.58798301 136.58647156 176.6421814 C137.76999207 176.66836548 138.95351257 176.69454956 140.17289734 176.7215271 C143.89379508 177.20273857 146.32961593 178.19417323 149.51615906 180.15390015 C151.98367145 183.85516873 151.82337061 185.77613546 151.51615906 190.15390015 C150.3284805 193.53421603 149.61790681 194.08606831 146.51615906 196.15390015 C144.28341639 196.40920115 144.28341639 196.40920115 141.61632729 196.41675568 C140.59976952 196.42443797 139.58321176 196.43212026 138.53584921 196.44003534 C137.41573238 196.43830238 136.29561555 196.43656941 135.14155579 196.43478394 C133.9542066 196.44072618 132.76685742 196.44666842 131.54352796 196.45279074 C128.24203722 196.46716652 124.94075457 196.4725105 121.63924742 196.47398567 C118.08086529 196.4776847 114.52252838 196.4927782 110.96417236 196.5062561 C103.18121096 196.53343108 95.39827014 196.54547315 87.61526918 196.55427742 C82.75726032 196.55980026 77.89925943 196.56827453 73.04125595 196.57728577 C59.5954291 196.60167104 46.14960864 196.62227043 32.70376015 196.62903595 C31.4126926 196.62969465 31.4126926 196.62969465 30.09554287 196.63036665 C28.80136047 196.63102149 28.80136047 196.63102149 27.48103297 196.63168955 C25.73265052 196.63257649 23.98426807 196.63346961 22.23588562 196.6343689 C21.36862478 196.63481176 20.50136394 196.63525462 19.60782246 196.6357109 C5.5498335 196.64360976 -8.50794831 196.67852647 -22.56585722 196.72508794 C-36.99285294 196.77248695 -51.41974465 196.79743832 -65.84681952 196.79977179 C-73.94961873 196.80160679 -82.05214795 196.81314858 -90.15487289 196.84941101 C-97.05344219 196.88017536 -103.95165807 196.89047666 -110.85028289 196.87393481 C-114.37110281 196.8661081 -117.89121065 196.86804409 -121.41194344 196.8960495 C-125.22669526 196.92611666 -129.04043892 196.90983535 -132.85527039 196.8888855 C-134.52875347 196.91305471 -134.52875347 196.91305471 -136.23604429 196.93771219 C-143.50759072 196.84391769 -143.50759072 196.84391769 -146.29079938 194.87673473 C-148.4907378 192.37769785 -149.44828469 190.37168219 -149.98384094 187.09140015 C-149.4088992 183.71361738 -148.63453127 181.82372262 -146.48384094 179.15390015 C-142.26206574 176.90455778 -138.22920534 176.89142217 -133.55805969 176.95858765 C-132.43667351 176.96283249 -132.43667351 176.96283249 -131.29263306 176.96716309 C-128.91870214 176.97830546 -126.54515669 177.00339853 -124.17134094 177.02890015 C-122.55611204 177.03893765 -120.94087719 177.04806216 -119.32563782 177.0562439 C-115.378225 177.07822526 -111.4310982 177.11271358 -107.48384094 177.15390015 C-107.15384094 175.50390015 -106.82384094 173.85390015 -106.48384094 172.15390015 C-105.84446594 172.05077515 -105.20509094 171.94765015 -104.54634094 171.84140015 C-103.86571594 171.61452515 -103.18509094 171.38765015 -102.48384094 171.15390015 C-102.15384094 170.16390015 -101.82384094 169.17390015 -101.48384094 168.15390015 C-97.76784903 167.95303572 -96.71175649 168.00195645 -93.48384094 170.15390015 C-92.82384094 169.49390015 -92.16384094 168.83390015 -91.48384094 168.15390015 C-88.85884094 168.02890015 -88.85884094 168.02890015 -86.48384094 168.15390015 C-86.15384094 169.14390015 -85.82384094 170.13390015 -85.48384094 171.15390015 C-85.11259094 170.65890015 -84.74134094 170.16390015 -84.35884094 169.65390015 C-81.73689702 167.55634501 -79.74541622 167.93646179 -76.48384094 168.15390015 C-76.15384094 169.14390015 -75.82384094 170.13390015 -75.48384094 171.15390015 C-74.82384094 171.15390015 -74.16384094 171.15390015 -73.48384094 171.15390015 C-73.15384094 170.16390015 -72.82384094 169.17390015 -72.48384094 168.15390015 C-70.50384094 168.15390015 -68.52384094 168.15390015 -66.48384094 168.15390015 C-66.15384094 169.14390015 -65.82384094 170.13390015 -65.48384094 171.15390015 C-63.69143431 171.0400014 -61.89989259 170.91242328 -60.10884094 170.77890015 C-59.11110657 170.70929077 -58.11337219 170.6396814 -57.08540344 170.56796265 C-54.32875215 170.39026051 -54.32875215 170.39026051 -52.48384094 168.15390015 C-49.85884094 168.02890015 -49.85884094 168.02890015 -47.48384094 168.15390015 C-47.15384094 169.14390015 -46.82384094 170.13390015 -46.48384094 171.15390015 C-45.82384094 171.15390015 -45.16384094 171.15390015 -44.48384094 171.15390015 C-44.15384094 170.16390015 -43.82384094 169.17390015 -43.48384094 168.15390015 C-41.50384094 168.15390015 -39.52384094 168.15390015 -37.48384094 168.15390015 C-37.15384094 169.14390015 -36.82384094 170.13390015 -36.48384094 171.15390015 C-35.82384094 171.15390015 -35.16384094 171.15390015 -34.48384094 171.15390015 C-34.15384094 170.16390015 -33.82384094 169.17390015 -33.48384094 168.15390015 C-29.85384094 167.82390015 -26.22384094 167.49390015 -22.48384094 167.15390015 C-22.48384094 161.87390015 -22.48384094 156.59390015 -22.48384094 151.15390015 C-24.4569928 151.17484741 -26.43014465 151.19579468 -28.46308899 151.21737671 C-34.98893214 151.28192745 -41.51469963 151.32786169 -48.04077435 151.36114883 C-51.99683177 151.38200666 -55.95254319 151.4102905 -59.90840149 151.45565796 C-63.72744958 151.49918136 -67.54616528 151.52305083 -71.36544228 151.53340912 C-72.82110132 151.54078895 -74.27674256 151.55520035 -75.73225975 151.57682037 C-77.77444361 151.60594291 -79.81526148 151.60985278 -81.85762024 151.60800171 C-83.01900009 151.61688416 -84.18037994 151.6257666 -85.37695312 151.63491821 C-89.14637086 151.0513252 -90.79667903 149.81037675 -93.48384094 147.15390015 C-94.29634094 144.90390015 -94.29634094 144.90390015 -94.48384094 143.15390015 C-95.51791077 143.17484741 -96.55198059 143.19579468 -97.61738586 143.21737671 C-101.46571423 143.28995303 -105.31398248 143.33576332 -109.16279602 143.37362671 C-110.82631107 143.39370222 -112.48975591 143.42096891 -114.1530304 143.45565796 C-116.54863334 143.50435781 -118.94330086 143.5269087 -121.33930969 143.54452515 C-122.44897346 143.57549286 -122.44897346 143.57549286 -123.58105469 143.60708618 C-127.27272595 143.60867873 -129.29675794 143.27449885 -132.43037415 141.25448608 C-135.92057808 137.68419544 -135.61835643 135.30687196 -135.64497375 130.39682007 C-135.64993866 129.7023024 -135.65490356 129.00778473 -135.66001892 128.29222107 C-135.67464936 125.98959367 -135.68144452 123.68703519 -135.68696594 121.3843689 C-135.69271736 119.78494769 -135.6984751 118.18552651 -135.70423889 116.58610535 C-135.71475186 113.22938719 -135.72059236 109.872693 -135.72407532 106.51596069 C-135.72955593 102.21844665 -135.75357324 97.92125011 -135.78204727 93.62383556 C-135.80068964 90.31838563 -135.80588013 87.01301187 -135.80741119 83.70751381 C-135.81043544 82.12350036 -135.81845633 80.53948818 -135.83159637 78.95552635 C-135.84868825 76.73649488 -135.84676921 74.51823476 -135.84028625 72.29916382 C-135.84393188 71.03722702 -135.84757751 69.77529022 -135.85133362 68.47511292 C-135.45479278 64.89137756 -134.61571981 63.02564297 -132.48384094 60.15390015 C-129.00501637 57.51154138 -125.05987482 57.8969721 -120.87446594 57.95858765 C-120.14765625 57.96141754 -119.42084656 57.96424744 -118.67201233 57.96716309 C-116.35911844 57.97832492 -114.04661706 58.00342163 -111.73384094 58.02890015 C-110.16223197 58.03893514 -108.5906169 58.04806008 -107.01899719 58.0562439 C-103.17379473 58.0782511 -99.3288843 58.11275299 -95.48384094 58.15390015 C-95.50478821 57.48858276 -95.52573547 56.82326538 -95.5473175 56.13778687 C-95.63084703 53.10164713 -95.68261697 50.06574972 -95.73384094 47.02890015 C-95.76735657 45.9821814 -95.80087219 44.93546265 -95.83540344 43.85702515 C-95.91398919 37.64875105 -95.81886855 33.7769191 -91.48384094 29.15390015 C-87.88277228 26.71468027 -84.24940427 26.8835142 -80.05317688 26.92684937 C-79.31132141 26.92655731 -78.56946594 26.92626526 -77.80513 26.92596436 C-75.35937194 26.92735482 -72.91392062 26.9429025 -70.46821594 26.95858765 C-68.76999579 26.96231879 -67.07177349 26.96516528 -65.37355042 26.96716309 C-60.90846288 26.97479158 -56.44350588 26.99443334 -51.97846985 27.01657104 C-47.42038234 27.03704635 -42.8622737 27.04616841 -38.30415344 27.0562439 C-29.36399199 27.07767997 -20.42392733 27.11180647 -11.48384094 27.15390015 C-11.50478821 26.54393188 -11.52573547 25.93396362 -11.5473175 25.30551147 C-11.63076956 22.52597721 -11.68259105 19.74670694 -11.73384094 16.96640015 C-11.76735657 16.00669312 -11.80087219 15.04698608 -11.83540344 14.05819702 C-11.93453346 6.89605292 -11.93453346 6.89605292 -9.59321594 3.0406189 C-6.27503936 0.07269429 -4.37411554 0.02397362 0 0 Z M-6.48384094 6.15390015 C-7.65810358 8.50242543 -7.59892267 9.8916408 -7.58149719 12.50546265 C-7.57827454 13.3562439 -7.57505188 14.20702515 -7.57173157 15.08358765 C-7.56335266 15.97304077 -7.55497375 16.8624939 -7.54634094 17.77890015 C-7.54182922 18.67608765 -7.5373175 19.57327515 -7.53266907 20.49765015 C-7.52086685 22.71646663 -7.5044025 24.93515033 -7.48384094 27.15390015 C-6.40500137 27.15976639 -5.3261618 27.16563263 -4.21463013 27.17167664 C5.95281484 27.22889156 16.12004568 27.30164683 26.28727245 27.38961506 C31.51434983 27.43434103 36.74134887 27.47359234 41.96855164 27.50033569 C47.01317631 27.52634631 52.05749987 27.56673304 57.10193825 27.61708641 C59.02640856 27.63377026 60.95093097 27.64527507 62.87546349 27.65151405 C65.57136472 27.66113858 68.26649292 27.68917806 70.96220398 27.7215271 C71.75774185 27.72009201 72.55327972 27.71865692 73.3729248 27.71717834 C77.8991377 27.79398165 81.02287636 28.17014535 84.51615906 31.15390015 C86.33317101 34.49481263 86.775354 37.35971416 86.83500671 41.1277771 C86.8548764 42.08839554 86.87474609 43.04901398 86.8952179 44.03874207 C86.9067691 45.06287704 86.91832031 46.08701202 86.93022156 47.1421814 C86.94958771 48.20051682 86.96895386 49.25885223 86.98890686 50.34925842 C87.04857154 53.72155763 87.09503599 57.09389121 87.14115906 60.46640015 C87.17935086 62.75612838 87.2184033 65.04584243 87.25834656 67.33554077 C87.35426232 72.94153445 87.43934817 78.54761391 87.51615906 84.15390015 C93.09981315 82.07276818 97.0713075 78.68862845 101.67631531 74.9546814 C104.51615906 73.15390015 104.51615906 73.15390015 106.48100281 73.0874939 C109.56485647 74.70340954 112.25942242 76.79707657 115.01615906 78.90390015 C124.44804294 86.08614026 124.44804294 86.08614026 135.51615906 89.15390015 C135.6088072 78.66197063 135.67989773 68.1701383 135.72340775 57.67788315 C135.74428962 52.80597239 135.7726182 47.93434133 135.81791687 43.06259155 C135.86135325 38.36175027 135.88529165 33.66117814 135.89566803 28.96015167 C135.90306338 27.16595471 135.91750473 25.37177261 135.93907928 23.57769012 C135.96808443 21.06598487 135.97211635 18.55539416 135.97026062 16.04354858 C135.99183228 14.92900551 135.99183228 14.92900551 136.01383972 13.79194641 C135.98602404 10.31643798 135.78599551 8.49847918 133.61277771 5.72329712 C130.29544789 3.24015248 128.43859135 3.02620099 124.33602905 3.01345825 C123.23825134 3.00774811 122.14047363 3.00203796 121.00942993 2.99615479 C119.79952896 2.99503693 118.58962799 2.99391907 117.34306335 2.99276733 C116.07308502 2.98780243 114.80310669 2.98283752 113.49464417 2.97772217 C110.00486928 2.96458999 106.51511364 2.95815148 103.02531791 2.95371151 C100.84529406 2.95078175 98.66527548 2.9466771 96.48525429 2.94220734 C89.66528684 2.92852949 82.84533144 2.91886457 76.02535123 2.91500545 C68.15134512 2.91052555 60.27751268 2.89298215 52.40355939 2.86400485 C46.31856197 2.84238829 40.2336134 2.83230116 34.14857799 2.83096433 C30.5137657 2.82991616 26.87911659 2.82400621 23.24434471 2.80614471 C19.18860211 2.78660284 15.13322281 2.79095287 11.07743835 2.79745483 C9.87361008 2.78824005 8.6697818 2.77902527 7.42947388 2.76953125 C5.7701181 2.77788498 5.7701181 2.77788498 4.07723999 2.78640747 C2.63899132 2.78420763 2.63899132 2.78420763 1.17168713 2.78196335 C-2.00759578 3.22725795 -3.89673896 4.28268307 -6.48384094 6.15390015 Z M14.51615906 151.15390015 C14.51615906 156.43390015 14.51615906 161.71390015 14.51615906 167.15390015 C17.15615906 167.81390015 19.79615906 168.47390015 22.51615906 169.15390015 C23.17615906 171.79390015 23.83615906 174.43390015 24.51615906 177.15390015 C29.46615906 177.15390015 34.41615906 177.15390015 39.51615906 177.15390015 C40.07303406 175.89577515 40.62990906 174.63765015 41.20365906 173.34140015 C42.90384641 169.50023612 44.67106321 167.89091547 48.51615906 166.15390015 C51.89115906 165.75546265 51.89115906 165.75546265 55.51615906 165.77890015 C57.31053406 165.76729858 57.31053406 165.76729858 59.14115906 165.75546265 C62.93039304 166.20280277 64.6186323 166.67729789 67.51615906 169.15390015 C68.83615906 171.79390015 70.15615906 174.43390015 71.51615906 177.15390015 C80.75615906 177.15390015 89.99615906 177.15390015 99.51615906 177.15390015 C96.23299344 174.52736766 93.10672025 172.16100101 89.64115906 169.84140015 C84.58924428 166.31855156 79.42844997 162.53520966 76.3452301 157.08346558 C74.9406211 154.65437836 73.66845465 152.96870656 71.51615906 151.15390015 C67.15866012 150.03728558 62.93480982 150.22073398 58.46147156 150.37265015 C57.20478668 150.38396973 55.94810181 150.39528931 54.65333557 150.4069519 C51.32736772 150.44407514 48.0058667 150.51578829 44.68113708 150.60458374 C41.28278523 150.68673879 37.8839698 150.72302549 34.48490906 150.76327515 C27.82727384 150.85138229 21.17232743 150.98940972 14.51615906 151.15390015 Z " fill="#481364" transform="translate(182.4838409423828,32.846099853515625)"/>
<path d="M0 0 C1.00182541 -0.00445668 1.00182541 -0.00445668 2.02388972 -0.0090034 C4.272424 -0.01770764 6.52090514 -0.0192001 8.76945496 -0.02069092 C10.37738153 -0.0253179 11.98530701 -0.03034239 13.5932312 -0.03573608 C17.96934156 -0.04887422 22.34543657 -0.05530786 26.72156358 -0.05974674 C29.45436896 -0.06267536 32.18717011 -0.06677978 34.91997337 -0.07125092 C43.46668981 -0.08492995 52.01339664 -0.09459445 60.56012326 -0.09845281 C70.43261202 -0.10293386 80.30496234 -0.12048223 90.17740899 -0.1494534 C97.8037942 -0.17105795 105.43014043 -0.18115644 113.05655593 -0.18249393 C117.61356178 -0.18354289 122.17043758 -0.18947003 126.72741127 -0.20731354 C131.01443478 -0.22377291 135.30123019 -0.22596016 139.588274 -0.21717453 C141.16165019 -0.21640299 142.73503853 -0.22076226 144.30838394 -0.23063278 C146.45691972 -0.24332106 148.60464381 -0.23749322 150.75317383 -0.22705078 C152.55645252 -0.22925062 152.55645252 -0.22925062 154.39616108 -0.2314949 C157.8876204 0.17804235 159.77188106 1.04463448 162.56706238 3.14044189 C163.81122364 5.62876441 163.70738178 7.32522889 163.72819519 10.10919189 C163.73780273 11.14366455 163.74741028 12.17813721 163.75730896 13.24395752 C163.76368378 14.92521729 163.76368378 14.92521729 163.77018738 16.64044189 C163.77588745 17.78706299 163.78158752 18.93368408 163.78746033 20.11505127 C163.79691782 22.54277623 163.80344727 24.97051407 163.80729675 27.39825439 C163.81702219 31.12504215 163.84804729 34.85128321 163.87956238 38.57794189 C163.88609015 40.93210527 163.89134151 43.28627261 163.89518738 45.64044189 C163.90753418 46.76128174 163.91988098 47.88212158 163.93260193 49.03692627 C163.92960083 50.07139893 163.92659973 51.10587158 163.92350769 52.17169189 C163.92897614 53.54164307 163.92897614 53.54164307 163.93455505 54.93927002 C163.81328247 55.66565674 163.69200989 56.39204346 163.56706238 57.14044189 C160.77914238 58.99905523 159.5251412 59.51077108 156.37174988 60.10528564 C155.57382019 60.26577393 154.7758905 60.42626221 153.95378113 60.59161377 C152.27249267 60.91715096 150.59017686 61.23742431 148.90690613 61.55255127 C148.11155457 61.71432861 147.316203 61.87610596 146.49674988 62.04278564 C145.40209412 62.25149292 145.40209412 62.25149292 144.2853241 62.4644165 C143.71829773 62.68750488 143.15127136 62.91059326 142.56706238 63.14044189 C142.23706238 64.13044189 141.90706238 65.12044189 141.56706238 66.14044189 C140.47165131 66.14591034 140.47165131 66.14591034 139.35411072 66.15148926 C132.4679542 66.18937456 125.58218681 66.24623325 118.6963768 66.32434464 C115.15634573 66.36383445 111.61656394 66.39601507 108.07633972 66.41143799 C104.00513294 66.42949561 99.93485783 66.47943914 95.86393738 66.53106689 C94.59402954 66.53229553 93.3241217 66.53352417 92.01573181 66.53479004 C90.83480957 66.55450867 89.65388733 66.57422729 88.43717957 66.59454346 C87.39793335 66.6034259 86.35868713 66.61230835 85.28794861 66.62145996 C81.85623174 67.27602576 80.6640062 68.38801568 78.56706238 71.14044189 C77.90039571 74.64044189 77.90039571 74.64044189 78.56706238 78.14044189 C80.67531705 80.91728677 81.86675468 82.0087033 85.32591248 82.65942383 C86.38292358 82.66830627 87.43993469 82.67718872 88.52897644 82.68634033 C89.72991943 82.70605896 90.93086243 82.72577759 92.16819763 82.74609375 C93.45997925 82.74732239 94.75176086 82.74855103 96.08268738 82.74981689 C97.42220558 82.76480215 98.76170533 82.78153004 100.10118103 82.79992676 C103.61927651 82.843575 107.13712278 82.8635933 110.65544128 82.87866211 C114.24852723 82.89824268 117.8413444 82.94021147 121.43424988 82.98028564 C128.47841827 83.05555972 135.52256713 83.10586792 142.56706238 83.14044189 C142.68170837 84.199729 142.79635437 85.25901611 142.91447449 86.35040283 C143.73868893 93.63135009 144.57974634 100.47929873 147.12956238 107.39044189 C149.70021675 114.4997887 149.70021675 114.4997887 150.56706238 118.14044189 C130.1832 118.23386176 109.79938103 118.30440959 89.41534901 118.34769058 C79.95079202 118.36832039 70.486368 118.39644898 61.02189636 118.44219971 C52.77315628 118.48205466 44.5245125 118.50787166 36.27567881 118.51679587 C31.90748881 118.52201291 27.5395743 118.53428342 23.17147255 118.56336212 C19.0600882 118.59051012 14.94909288 118.5988882 10.83762741 118.59287262 C9.32873992 118.59397314 7.81983943 118.60193096 6.31102943 118.61726379 C4.24976301 118.63718348 2.18996286 118.6323757 0.12866211 118.62145996 C-1.02450091 118.62514713 -2.17766394 118.6288343 -3.36577129 118.63263321 C-7.09744501 118.03380772 -8.75129353 116.75049286 -11.43293762 114.14044189 C-12.59043319 111.82545077 -12.56586755 110.48652164 -12.58010864 107.90940857 C-12.58726395 107.02198471 -12.59441925 106.13456085 -12.60179138 105.22024536 C-12.60582474 103.7560466 -12.60582474 103.7560466 -12.60993958 102.26226807 C-12.61651077 101.236129 -12.62308197 100.20998993 -12.62985229 99.15275574 C-12.64961401 95.74630669 -12.66125384 92.33990178 -12.67121887 88.93341064 C-12.6752944 87.77203394 -12.67936993 86.61065723 -12.68356895 85.4140873 C-12.70444119 79.26810508 -12.71873836 73.12214527 -12.72810364 66.97613525 C-12.73917504 60.6204411 -12.77358045 54.26509638 -12.81327534 47.90952587 C-12.83938989 43.02909178 -12.84779086 38.14874161 -12.85138512 33.26824379 C-12.85626382 30.92504832 -12.86791407 28.58185692 -12.88642311 26.23872948 C-12.91070583 22.96113573 -12.90986916 19.68445501 -12.90290833 16.40679932 C-12.91571838 15.4367395 -12.92852844 14.46667969 -12.94172668 13.46722412 C-12.90834106 9.15984893 -12.83644538 6.79286645 -10.52856445 3.06129456 C-6.98560111 -0.18618752 -4.73764466 0.01173377 0 0 Z " fill="#544EBA" transform="translate(102.43293762207031,62.85955810546875)"/>
<path d="M0 0 C3.39003439 1.53377426 6.12028951 3.54626128 9.0625 5.8125 C19.27158011 13.26054921 29.86058063 16.27358084 42 19 C42.59157106 42.08037234 41.45392805 65.13148085 25 83 C24.49210937 83.598125 23.98421875 84.19625 23.4609375 84.8125 C17.76893765 91.09332742 9.69234799 96.79975222 1.45703125 98.90625 C-6.48810863 99.12171142 -13.45372793 92.6978193 -19.25 87.75 C-33.11605306 74.59616796 -40.33016659 57.00094115 -41 38 C-41.09261707 31.66631585 -41.059072 25.33383092 -41 19 C-40.42145264 18.84966309 -39.84290527 18.69932617 -39.24682617 18.54443359 C-24.15802157 14.57219432 -12.11598517 10.11161231 0 0 Z " fill="#F3BE43" transform="translate(288,109)"/>
<path d="M0 0 C8.10494714 5.72022231 14.504315 12.94538379 16.84375 22.74609375 C18.10629175 33.21087279 16.11467449 42.37266989 10.09375 51.05859375 C4.75863943 57.58374152 -1.7771361 62.24535693 -10.15625 63.74609375 C-21.99780299 64.73517938 -30.85319984 63.42825235 -40.08203125 55.76171875 C-47.63772306 48.41946457 -51.2148399 39.73473298 -51.59375 29.30859375 C-51.28202758 18.99777514 -47.66366863 12.35244764 -40.59375 4.9453125 C-37.08424471 1.77888385 -33.46984418 -0.36516233 -29.15625 -2.25390625 C-27.733125 -2.90359375 -27.733125 -2.90359375 -26.28125 -3.56640625 C-17.30217294 -5.5418032 -8.01490325 -4.66084048 0 0 Z " fill="#491364" transform="translate(154.15625,93.25390625)"/>
<path d="M0 0 C1.50486132 -0.00967334 1.50486132 -0.00967334 3.04012388 -0.0195421 C4.14535904 -0.01644489 5.2505942 -0.01334769 6.38932133 -0.01015663 C7.56104187 -0.01468774 8.7327624 -0.01921886 9.93998963 -0.02388728 C13.19778303 -0.03438071 16.45543813 -0.03585317 19.71324313 -0.03349853 C23.22456334 -0.03309115 26.73585036 -0.04412185 30.24715519 -0.05361366 C37.1282381 -0.07024133 44.00928675 -0.07572399 50.89038806 -0.07683842 C56.48191635 -0.07778798 62.0734333 -0.08189364 67.664958 -0.08823967 C83.5088473 -0.10585625 99.35270949 -0.11507779 115.19660866 -0.11357872 C116.4783896 -0.11345885 116.4783896 -0.11345885 117.7860651 -0.11333656 C118.64162579 -0.1132548 119.49718649 -0.11317304 120.37867326 -0.1130888 C134.24975942 -0.11227559 148.12073707 -0.1314209 161.99179184 -0.1596133 C176.22555008 -0.18831524 190.45925536 -0.2021551 204.69304329 -0.20042574 C212.68787216 -0.19976095 220.68258725 -0.20529231 228.6773901 -0.22678185 C235.4833468 -0.24495826 242.28913815 -0.24937023 249.09510856 -0.235763 C252.56907285 -0.22921552 256.04271959 -0.22917956 259.51665401 -0.2464695 C263.27918493 -0.2618017 267.04087234 -0.25269265 270.80338383 -0.23720741 C272.45789048 -0.2526381 272.45789048 -0.2526381 274.14582151 -0.26838052 C275.65459445 -0.25458414 275.65459445 -0.25458414 277.19384766 -0.24050903 C278.06254044 -0.24094377 278.93123321 -0.24137851 279.82625002 -0.24182642 C282.96220702 0.42887346 284.19539257 1.77618711 286.1598444 4.25726891 C286.09031304 7.10805474 285.64433461 8.62894915 283.90393496 10.88601744 C281.59828024 12.69878593 280.23276339 12.63315818 277.31689548 12.63479233 C276.31303791 12.64261557 275.30918033 12.65043881 274.27490282 12.65849912 C273.16898554 12.65180696 272.06306827 12.64511479 270.92363834 12.63821983 C269.16499919 12.64523979 269.16499919 12.64523979 267.37083197 12.65240157 C264.11103638 12.66231958 260.85157407 12.65871986 257.59178662 12.64944291 C254.07843835 12.64267211 250.56513612 12.65312383 247.05179691 12.66138268 C240.16701293 12.67474334 233.28232689 12.67183193 226.39753902 12.66314475 C220.80361524 12.65637776 215.20971897 12.65544721 209.61579227 12.6587162 C208.82053624 12.6591759 208.0252802 12.6596356 207.20592549 12.66010923 C205.59052828 12.66106838 203.97513108 12.66204102 202.35973388 12.663027 C187.20156449 12.67158773 172.04344948 12.66173608 156.88528901 12.6456259 C143.87049769 12.6322221 130.85578662 12.63455 117.84099674 12.64838219 C102.73817005 12.66442597 87.63539104 12.67076369 72.53255701 12.6615454 C70.92300352 12.66058972 69.31345003 12.65964661 67.70389652 12.6587162 C66.91190398 12.65825338 66.11991143 12.65779055 65.30391911 12.6573137 C59.71479067 12.65472019 54.12569241 12.65910255 48.53656864 12.66615486 C41.72803347 12.67455673 34.91960209 12.6723175 28.11107886 12.65631263 C24.63527087 12.6484121 21.15963613 12.64536838 17.68382931 12.65526009 C13.92106111 12.66340463 10.15878681 12.65323954 6.39605045 12.63821983 C5.29013318 12.644912 4.1842159 12.65160416 3.04478598 12.65849912 C1.53899961 12.64676426 1.53899961 12.64676426 0.00279331 12.63479233 C-0.86627919 12.63430527 -1.73535169 12.63381821 -2.63075972 12.6333164 C-5.35311315 12.1699616 -6.23970965 11.48479153 -7.8401556 9.25726891 C-8.2151556 5.69476891 -8.2151556 5.69476891 -7.8401556 2.25726891 C-4.60160283 0.09823373 -3.73486648 0.00605836 0 0 Z " fill="#F6E4C5" transform="translate(44.840155601501465,213.74273109436035)"/>
<path d="M0 0 C0.33 28.05 0.66 56.1 1 85 C-34 85 -34 85 -39 81 C-40.45950539 78.08098922 -40.14346035 75.50292904 -40.16113281 72.24291992 C-40.16609772 71.54840225 -40.17106262 70.85388458 -40.17617798 70.13832092 C-40.19080841 67.83569352 -40.19760358 65.53313504 -40.203125 63.23046875 C-40.20887642 61.63104754 -40.21463416 60.03162636 -40.22039795 58.4322052 C-40.23091092 55.07548704 -40.23675141 51.71879286 -40.24023438 48.36206055 C-40.24571499 44.06454651 -40.2697323 39.76734997 -40.29820633 35.46993542 C-40.3168487 32.16448549 -40.32203919 28.85911172 -40.32357025 25.55361366 C-40.3265945 23.96960022 -40.33461538 22.38558804 -40.34775543 20.80162621 C-40.36484731 18.58259473 -40.36292827 16.36433461 -40.35644531 14.14526367 C-40.36009094 12.88332687 -40.36373657 11.62139008 -40.36749268 10.32121277 C-39.96552068 6.68839337 -39.26043116 4.85009409 -37 2 C-25.95262726 -3.52368637 -12.35133821 0 0 0 Z " fill="#F7E6C8" transform="translate(87,91)"/>
<path d="M0 0 C3.39003439 1.53377426 6.12028951 3.54626128 9.0625 5.8125 C19.27158011 13.26054921 29.86058063 16.27358084 42 19 C42.59157106 42.08037234 41.45392805 65.13148085 25 83 C24.49210937 83.598125 23.98421875 84.19625 23.4609375 84.8125 C17.76893765 91.09332742 9.69234799 96.79975222 1.45703125 98.90625 C-6.48810863 99.12171142 -13.45372793 92.6978193 -19.25 87.75 C-33.11605306 74.59616796 -40.33016659 57.00094115 -41 38 C-41.09261707 31.66631585 -41.059072 25.33383092 -41 19 C-40.42145264 18.84966309 -39.84290527 18.69932617 -39.24682617 18.54443359 C-24.15802157 14.57219432 -12.11598517 10.11161231 0 0 Z M-5 10.75 C-14.37319705 17.57561016 -23.90130007 20.2509149 -35 23 C-35.41949212 43.55511377 -34.3927234 62.87109144 -20 79 C-14.6503509 84.04765278 -8.06069463 89.60276973 -1 92 C8.19799492 91.18369617 16.94313756 83.49592867 23 77 C28.47449115 69.97837005 31.73354716 62.57170317 34 54 C34.17950195 53.35200439 34.35900391 52.70400879 34.54394531 52.03637695 C36.12780021 45.79802782 36.23531173 39.84830853 36.125 33.4375 C36.11597656 32.42880859 36.10695313 31.42011719 36.09765625 30.38085938 C36.07433356 27.92031543 36.04160763 25.46029104 36 23 C34.96101563 22.76925781 33.92203125 22.53851563 32.8515625 22.30078125 C21.17784334 19.61331642 12.07741411 16.07259616 2.71484375 8.35546875 C-0.57695361 5.75352414 -1.96310775 8.43858757 -5 10.75 Z " fill="#FAF8F8" transform="translate(288,109)"/>
<path d="M0 0 C7.31980262 5.03781986 12.61614312 11.40556862 15 20 C15.85494072 28.47981902 15.38825113 35.59482622 11 43 C10.01 42.67 9.02 42.34 8 42 C7.234375 40.00390625 7.234375 40.00390625 6.75 37.5625 C6.57984375 36.75941406 6.4096875 35.95632812 6.234375 35.12890625 C6 33 6 33 7 31 C7.41445024 27.26994786 7.35844335 25.53766502 5.25 22.375 C3.09464867 20.03958287 3.09464867 20.03958287 1 18.1875 C-1.33911594 15.62909194 -2.56625676 13.04712544 -3.97265625 9.90234375 C-5.81670904 6.48769087 -7.48849567 5.19437165 -11.125 3.8125 C-16.72035498 2.63928041 -21.59881811 1.85160866 -26.875 4.375 C-29.45019641 7.55612498 -30.22774687 10.34114568 -31.25 14.26171875 C-32.77065905 19.81370829 -34.80407108 25.20610662 -38 30 C-38.22584687 33.5382677 -38.04336284 36.60907078 -37 40 C-38.98 40.99 -40.96 41.98 -43 43 C-47.37880036 35.61077439 -48.19610432 28.46545153 -47 20 C-43.98726243 10.43882151 -38.2595442 3.56530673 -29.5859375 -1.375 C-19.6144558 -5.93339163 -9.64074948 -4.97398304 0 0 Z " fill="#F9F8FA" transform="translate(153,96)"/>
<path d="M0 0 C1.16509094 -0.00860046 2.33018188 -0.01720093 3.53057861 -0.02606201 C5.45763893 -0.03245193 5.45763893 -0.03245193 7.42362976 -0.03897095 C8.78525502 -0.04687137 10.14687819 -0.05514028 11.50849915 -0.06375122 C15.9862925 -0.08997753 20.46409525 -0.10527909 24.94194031 -0.11953735 C26.48280023 -0.12489672 28.02366009 -0.13027422 29.56451988 -0.13566971 C35.97347484 -0.15729901 42.38242727 -0.1760362 48.79140949 -0.1872921 C57.97962876 -0.20353467 67.16742535 -0.23671883 76.35548526 -0.29369295 C82.8141491 -0.33237849 89.27269982 -0.35192309 95.73147649 -0.35721266 C99.58997835 -0.36086799 103.44802947 -0.37290753 107.30640602 -0.4053154 C110.93694832 -0.43537241 114.56676662 -0.44171699 118.19740677 -0.42993164 C120.16339132 -0.42960542 122.12933103 -0.45408687 124.09515381 -0.47930908 C133.70420672 -0.4111972 133.70420672 -0.4111972 136.78463745 2.56536865 C139.65379576 6.85460571 139.65326321 9.95730766 139.62968445 15.00009155 C139.62983047 15.80992996 139.6299765 16.61976837 139.63012695 17.45414734 C139.62942883 20.13794611 139.6216411 22.82167596 139.61381531 25.50546265 C139.61195077 27.36348431 139.61052704 29.22150647 139.60952759 31.07952881 C139.60570521 35.97532503 139.59587729 40.8710917 139.58482361 45.76687622 C139.5746035 50.76046346 139.57002868 55.75405547 139.56498718 60.74765015 C139.55425479 70.54974648 139.5371817 80.35182086 139.51615906 90.15390015 C138.19615906 89.82390015 136.87615906 89.49390015 135.51615906 89.15390015 C135.51029282 88.14578781 135.50442657 87.13767548 135.49838257 86.09901428 C135.4412198 76.60787807 135.36849223 67.11697241 135.28044415 57.62607098 C135.23567784 52.74644808 135.19643565 47.86690988 135.16972351 42.9871521 C135.14375282 38.27968438 135.10339503 33.57254154 135.05297279 28.86527443 C135.03626177 27.06754402 135.02477394 25.26975736 135.01854515 23.47196007 C135.00894988 20.95763298 134.98094676 18.44414501 134.9485321 15.93002319 C134.94996719 15.1833992 134.95140228 14.43677521 134.95288086 13.66752625 C134.89628274 9.6876048 134.89628274 9.6876048 133.11413574 6.23039246 C130.01960192 4.14573008 128.03825942 4.02666875 124.32929993 4.02018738 C122.68046562 4.0137899 122.68046562 4.0137899 120.99832153 4.00726318 C119.78684952 4.00771637 118.5753775 4.00816956 117.32719421 4.00863647 C116.05560959 4.00527786 114.78402496 4.00191925 113.47390747 3.99845886 C109.98006231 3.98960872 106.48624163 3.98728031 102.99238634 3.98664308 C100.07737035 3.98569456 97.16236008 3.98201687 94.24734628 3.97847098 C87.37015072 3.97032233 80.49296826 3.96788709 73.61576843 3.96859741 C66.51871736 3.96919812 59.42174232 3.95864874 52.32471049 3.94285375 C46.23463318 3.92978218 40.14458073 3.92441336 34.05448949 3.92505282 C30.41583739 3.92530795 26.77725281 3.92244866 23.13861465 3.91187477 C19.08032782 3.90040392 15.02221149 3.90493825 10.96391296 3.91098022 C9.75648941 3.90536072 8.54906586 3.89974121 7.30505371 3.89395142 C5.64775993 3.90024315 5.64775993 3.90024315 3.95698547 3.90666199 C2.99723124 3.90611722 2.037477 3.90557245 1.0486393 3.90501118 C-1.62059306 4.16733997 -3.2382297 4.70734728 -5.48384094 6.15390015 C-6.63038576 8.44698978 -6.68113212 9.95299671 -6.80024719 12.50546265 C-6.84214172 13.3562439 -6.88403625 14.20702515 -6.92720032 15.08358765 C-6.96651672 15.97304077 -7.00583313 16.8624939 -7.04634094 17.77890015 C-7.11111633 19.1246814 -7.11111633 19.1246814 -7.17720032 20.49765015 C-7.28340955 22.71624297 -7.38545289 24.93494894 -7.48384094 27.15390015 C-8.80384094 27.15390015 -10.12384094 27.15390015 -11.48384094 27.15390015 C-11.60044919 23.7583578 -11.67122466 20.36333336 -11.73384094 16.96640015 C-11.76735657 16.00669312 -11.80087219 15.04698608 -11.83540344 14.05819702 C-11.93453346 6.89605292 -11.93453346 6.89605292 -9.59321594 3.0406189 C-6.27503936 0.07269429 -4.37411554 0.02397362 0 0 Z " fill="#F6E4C5" transform="translate(182.4838409423828,32.846099853515625)"/>
<path d="M0 0 C1.23468018 -0.00637985 2.46936035 -0.0127597 3.74145508 -0.01933289 C5.09456341 -0.02086133 6.44767226 -0.02197542 7.80078125 -0.02270508 C9.18318721 -0.02591704 10.56559282 -0.02928107 11.94799805 -0.03279114 C14.84652495 -0.03878251 17.74502203 -0.04063098 20.64355469 -0.04003906 C24.36286641 -0.03993733 28.08198773 -0.05360127 31.80125427 -0.07081127 C34.6562183 -0.08191254 37.51113598 -0.08395887 40.36611938 -0.08342934 C41.73768776 -0.08461184 43.10925724 -0.08904867 44.48080444 -0.0967617 C46.39603227 -0.10652528 48.31131574 -0.10242874 50.2265625 -0.09765625 C51.31751221 -0.09908127 52.40846191 -0.10050629 53.5324707 -0.10197449 C56.11328125 0.14526367 56.11328125 0.14526367 58.11328125 2.14526367 C58.48828125 5.58276367 58.48828125 5.58276367 58.11328125 9.14526367 C55.92305704 11.38413314 54.53034832 12.08524496 51.41931152 12.53294373 C49.87853943 12.5410482 49.87853943 12.5410482 48.30664062 12.54931641 C46.55462341 12.56834267 46.55462341 12.56834267 44.76721191 12.5877533 C43.50985229 12.58481766 42.25249268 12.58188202 40.95703125 12.57885742 C39.015401 12.5867202 39.015401 12.5867202 37.0345459 12.59474182 C34.29750815 12.6036664 31.56076229 12.6012571 28.82373047 12.59130859 C25.3196048 12.57981165 21.8164858 12.60004284 18.31249237 12.62922573 C14.96478521 12.65200104 11.61731407 12.64512111 8.26953125 12.64135742 C7.01217163 12.6525914 5.75481201 12.66382538 4.45935059 12.67539978 C3.29133911 12.66601883 2.12332764 12.65663788 0.91992188 12.64697266 C-0.10725952 12.64680649 -1.13444092 12.64664032 -2.19274902 12.64646912 C-5.6172855 12.0093438 -6.83077729 10.92027246 -8.88671875 8.14526367 C-8.76171875 4.45776367 -8.76171875 4.45776367 -7.88671875 1.14526367 C-5.17404307 -0.21107417 -3.03692545 0.01061107 0 0 Z " fill="#F6E9DB" transform="translate(191.88671875,105.854736328125)"/>
<path d="M0 0 C1.14095627 0.00015106 2.28191254 0.00030212 3.45744324 0.00045776 C4.6887648 0.01078033 5.92008636 0.02110291 7.1887207 0.03173828 C9.08011528 0.03598312 9.08011528 0.03598312 11.00971985 0.04031372 C14.35860618 0.04961953 17.70721986 0.06758375 21.05603027 0.08972168 C24.47458542 0.11019693 27.89316876 0.11931902 31.31176758 0.12939453 C38.01693087 0.15146901 44.72192902 0.1860064 51.42700195 0.22705078 C51.42700195 4.51705078 51.42700195 8.80705078 51.42700195 13.22705078 C44.06425221 13.31746807 36.70180648 13.3908329 29.33861923 13.43429947 C25.91946515 13.45516279 22.50071101 13.48345583 19.08178711 13.52880859 C15.15003265 13.58063696 11.21843938 13.60000656 7.28637695 13.61767578 C5.44713654 13.64864349 5.44713654 13.64864349 3.57073975 13.68023682 C2.42985901 13.68053894 1.28897827 13.68084106 0.11352539 13.68115234 C-0.89019104 13.69003479 -1.89390747 13.69891724 -2.92803955 13.70806885 C-6.32713737 13.08990132 -7.52583492 11.96982747 -9.57299805 9.22705078 C-9.51049805 5.60205078 -9.51049805 5.60205078 -8.57299805 2.22705078 C-5.16617241 -0.04416631 -3.99502621 -0.01763808 0 0 Z " fill="#E7D6D1" transform="translate(192.572998046875,130.77294921875)"/>
<path d="M0 0 C1.36363208 1.97946592 2.69418644 3.9819245 4 6 C5.86124923 7.98239527 5.86124923 7.98239527 8 9 C10.01566661 8.90824827 10.01566661 8.90824827 12 8 C13.55467209 6.16386393 13.55467209 6.16386393 14.75 3.9375 C15.17796875 3.20402344 15.6059375 2.47054687 16.046875 1.71484375 C16.51867187 0.86599609 16.51867187 0.86599609 17 0 C23.30596952 1.10938353 28.37529486 2.93197901 34 6 C31.50670154 11.83028882 26.07768354 15.270889 20.4375 17.875 C11.82146043 20.66801872 2.49662958 20.20286084 -5.625 16.3125 C-9.7233081 13.98717963 -13.00660666 11.63483477 -16 8 C-15 5 -15 5 -12.3828125 3.61328125 C-11.30773437 3.18402344 -10.23265625 2.75476563 -9.125 2.3125 C-8.05507812 1.87550781 -6.98515625 1.43851563 -5.8828125 0.98828125 C-3 0 -3 0 0 0 Z " fill="#EFBA42" transform="translate(128,135)"/>
<path d="M0 0 C8.08173649 5.70384095 14.54970035 12.95173806 16.84375 22.74609375 C17.46071426 29.37650716 17.54173905 35.55339406 14.84375 41.74609375 C13.35875 42.24109375 13.35875 42.24109375 11.84375 42.74609375 C12.00230469 41.89660156 12.16085938 41.04710937 12.32421875 40.171875 C13.95485135 29.41950816 13.56362126 20.63184758 7.37109375 11.59765625 C2.43805489 5.32348389 -4.28322746 1.26892209 -12.15625 -0.25390625 C-22.27644545 -1.24005948 -30.03150545 0.91943987 -37.96875 7.30859375 C-44.70053794 13.78973001 -47.40761998 20.63483114 -47.65625 29.93359375 C-47.46051227 35.4937685 -46.55635391 39.74587728 -44.15625 44.74609375 C-42.17625 44.08609375 -40.19625 43.42609375 -38.15625 42.74609375 C-38.6925 43.48859375 -39.22875 44.23109375 -39.78125 44.99609375 C-41.47007368 47.56882739 -41.47007368 47.56882739 -40.51171875 49.72265625 C-38.89542909 52.13544601 -37.28268545 53.3052562 -34.84375 54.87109375 C-34.08449219 55.36867187 -33.32523438 55.86625 -32.54296875 56.37890625 C-25.29103543 60.53304154 -18.38419233 60.47035479 -10.15625 59.74609375 C-7.29941157 58.91750253 -4.77581626 57.9271058 -2.109375 56.62109375 C-0.15625 55.74609375 -0.15625 55.74609375 2.84375 55.74609375 C1.84999516 58.37402322 1.17654532 59.54641656 -1.265625 61.01171875 C-10.78493155 64.56033599 -21.42261276 65.69924339 -31.0703125 61.84375 C-40.16910592 57.05580815 -46.26021041 50.02844383 -50.03125 40.49609375 C-52.46400834 32.14896483 -52.27508923 23.08532716 -48.609375 15.16015625 C-43.81821663 7.20065121 -37.64695214 1.46381992 -29.15625 -2.25390625 C-27.733125 -2.90359375 -27.733125 -2.90359375 -26.28125 -3.56640625 C-17.30217294 -5.5418032 -8.01490325 -4.66084048 0 0 Z " fill="#4B1768" transform="translate(154.15625,93.25390625)"/>
<path d="M0 0 C2.64233769 2.19257809 4.46669809 3.93339618 6 7 C6.37934197 12.02628116 6.02448301 14.92858056 3 19 C2.34 19.66 1.68 20.32 1 21 C0.56589808 23.34074566 0.22360888 25.69909643 -0.0625 28.0625 C-0.90277778 34.90277778 -0.90277778 34.90277778 -2 36 C-5.5 36.125 -5.5 36.125 -9 36 C-10.81328932 34.18671068 -10.17326417 31.19458417 -10.25 28.75 C-10.47207635 23.21382804 -10.47207635 23.21382804 -13.5 18.875 C-14.325 18.25625 -15.15 17.6375 -16 17 C-17.23534045 13.29397865 -17.45528745 10.90246386 -17 7 C-12.73659734 0.17315903 -8.06582358 -2.34270509 0 0 Z " fill="#471060" transform="translate(294,141)"/>
<path d="M0 0 C10.23 0 20.46 0 31 0 C31 5.28 31 10.56 31 16 C20.77 16 10.54 16 0 16 C0 10.72 0 5.44 0 0 Z " fill="#938580" transform="translate(163,184)"/>
<path d="M0 0 C1.39335554 -0.00337103 2.7867082 -0.00822604 4.18005371 -0.01449585 C7.09541922 -0.02185395 10.01001697 -0.01119781 12.92529297 0.01220703 C16.65485493 0.04069639 20.38261794 0.02428639 24.11211395 -0.00565529 C26.98790952 -0.02375835 29.86328135 -0.01795696 32.73908997 -0.00501633 C34.11375646 -0.00169051 35.48846193 -0.00574045 36.86308289 -0.01741409 C48.93781835 -0.09746237 48.93781835 -0.09746237 52.25195312 2.98681641 C54.44695187 6.5391122 54.566394 8.55649982 53.90625 12.6640625 C52.26170349 15.34237671 52.26170349 15.34237671 49.90625 17.6640625 C47.02919006 18.29898071 47.02919006 18.29898071 43.65649414 18.31103516 C42.3916066 18.32679596 41.12671906 18.34255676 39.82350159 18.35879517 C38.44612762 18.34984438 37.06876159 18.33958914 35.69140625 18.328125 C34.27420129 18.33149488 32.85699916 18.33634893 31.43980408 18.34262085 C28.47138926 18.34998675 25.50372753 18.33929909 22.53540039 18.31591797 C18.73743893 18.28745435 14.94124597 18.30381756 11.14334965 18.33378029 C8.2169421 18.35188437 5.29095094 18.346081 2.36453056 18.33314133 C0.96474433 18.32981445 -0.43508016 18.3338692 -1.8348217 18.34553909 C-3.79473993 18.35829208 -5.75479127 18.33539414 -7.71459961 18.31103516 C-8.82838486 18.30705719 -9.9421701 18.30307922 -11.08970642 18.29898071 C-15.07290204 17.45711428 -16.58380037 15.80485011 -19.09375 12.6640625 C-19.83181229 8.53091369 -19.65016879 6.56242653 -17.43554688 2.98681641 C-12.88639367 -1.25205772 -5.80865277 -0.04932862 0 0 Z M-14.97657776 4.9646759 C-16.43199901 6.82176628 -16.43199901 6.82176628 -15.96875 10.2265625 C-15.43741067 13.91848644 -15.43741067 13.91848644 -12.09375 15.6640625 C-9.43391949 15.97522327 -9.43391949 15.97522327 -6.40063477 15.9387207 C-4.64850426 15.95301872 -4.64850426 15.95301872 -2.86097717 15.96760559 C-1.59845627 15.96669418 -0.33593536 15.96578278 0.96484375 15.96484375 C2.90859642 15.97127144 2.90859642 15.97127144 4.89161682 15.97782898 C7.63457326 15.98528891 10.37740099 15.98500171 13.12036133 15.97973633 C16.63218807 15.97394291 20.14348719 15.99086992 23.65522671 16.014081 C27.00845452 16.03237259 30.3615663 16.0286328 33.71484375 16.02734375 C34.97534042 16.0365535 36.2358371 16.04576324 37.53453064 16.05525208 C38.70576981 16.04902328 39.87700897 16.04279449 41.08374023 16.03637695 C42.62903664 16.03732109 42.62903664 16.03732109 44.20555115 16.0382843 C47.32801353 15.60562092 48.71185433 14.91115966 50.90625 12.6640625 C51.40632794 9.12192265 51.40632794 9.12192265 50.90625 5.6640625 C48.20738115 2.96519365 46.81015386 3.40539035 43.03540039 3.3894043 C41.80394791 3.37987228 40.57249542 3.37034027 39.3037262 3.36051941 C37.95378593 3.36078083 36.60384564 3.36171786 35.25390625 3.36328125 C33.87389496 3.35939551 32.49388487 3.35506109 31.11387634 3.35029602 C28.21951422 3.34282835 25.32527406 3.34312886 22.4309082 3.34838867 C18.72054762 3.35418246 15.01068637 3.33725781 11.30040836 3.314044 C8.44967222 3.29931601 5.59905656 3.29843367 2.74828911 3.30155373 C1.38033497 3.30103998 0.01237418 3.29579223 -1.35554314 3.28574181 C-3.2681587 3.27341508 -5.18087491 3.2820985 -7.09350586 3.29174805 C-8.18223495 3.29111862 -9.27096405 3.2904892 -10.39268494 3.2898407 C-13.09760074 3.4580973 -13.09760074 3.4580973 -14.97657776 4.9646759 Z " fill="#56246F" transform="translate(199.09375,102.3359375)"/>
<path d="M0 0 C6.75 2.75 6.75 2.75 9 5 C9 5.99 9 6.98 9 8 C10.32 8.33 11.64 8.66 13 9 C12.67 10.32 12.34 11.64 12 13 C11.01 13 10.02 13 9 13 C8.9175 13.721875 8.835 14.44375 8.75 15.1875 C7.84343384 18.58712309 6.36105545 20.42430315 4 23 C1.14675563 24.42662219 -0.83454549 24.31033868 -4 24 C-8.54872677 21.312116 -9.41439805 18.86251264 -11 14 C-13.00136244 12.57944932 -13.00136244 12.57944932 -15 12 C-13.65070371 7.95211114 -11.01025594 6.90960695 -7.5 4.875 C-3.52532061 2.72934103 -3.52532061 2.72934103 0 0 Z " fill="#EDB599" transform="translate(138,105)"/>
<path d="M0 0 C6.51445205 -0.0505939 13.02885368 -0.08568856 19.54345703 -0.10986328 C21.76092421 -0.11993825 23.97837805 -0.13359859 26.19580078 -0.15087891 C29.37796312 -0.17506163 32.55995024 -0.18646797 35.7421875 -0.1953125 C37.23599442 -0.21079636 37.23599442 -0.21079636 38.75997925 -0.22659302 C40.14118454 -0.22681961 40.14118454 -0.22681961 41.55029297 -0.22705078 C42.3630368 -0.231492 43.17578064 -0.23593323 44.01315308 -0.24050903 C46 0 46 0 48 2 C47.46428571 5.53571429 47.46428571 5.53571429 46 7 C44.66598109 7.11850165 43.32589278 7.16998963 41.98681641 7.19287109 C41.13568268 7.20893402 40.28454895 7.22499695 39.40762329 7.24154663 C35.51101316 7.28583159 31.61457611 7.32705808 27.71777344 7.35009766 C25.65939031 7.36667131 23.60106506 7.39397978 21.54296875 7.43212891 C18.58302812 7.48674912 15.62443842 7.50874807 12.6640625 7.5234375 C11.7421109 7.54610687 10.8201593 7.56877625 9.87026978 7.59213257 C7.47547906 7.58417253 5.33339583 7.53906615 3 7 C0.86301972 4.55454868 0 3.246456 0 0 Z " fill="#8E7F7E" transform="translate(156,203)"/>
<path d="M0 0 C25.08 0 50.16 0 76 0 C76.495 1.98 76.495 1.98 77 4 C51.26 4 25.52 4 -1 4 C-0.67 2.68 -0.34 1.36 0 0 Z " fill="#8DACD3" transform="translate(79,207)"/>
<path d="M0 0 C2.89935452 2.00193527 4.15699721 3.63182729 5.625 6.8125 C5.625 7.4725 5.625 8.1325 5.625 8.8125 C-2.955 8.8125 -11.535 8.8125 -20.375 8.8125 C-18.375 2.8125 -18.375 2.8125 -15.8125 0.4375 C-10.28465247 -2.17566429 -5.72484437 -2.01429709 0 0 Z " fill="#99C7E6" transform="translate(245.375,202.1875)"/>
<path d="M0 0 C0.433125 0.598125 0.86625 1.19625 1.3125 1.8125 C1.869375 2.534375 2.42625 3.25625 3 4 C3.61093254 4.79963921 3.61093254 4.79963921 4.23420715 5.61543274 C6.79678131 7.62476033 8.71203178 7.36054413 11.94018555 7.34057617 C13.77174446 7.34023628 13.77174446 7.34023628 15.64030457 7.33988953 C16.95912125 7.32440567 18.27793793 7.30892181 19.63671875 7.29296875 C21.00006138 7.28737243 22.36341004 7.2831025 23.72676086 7.28010559 C27.31243592 7.26865949 30.89774554 7.23919486 34.48327637 7.20599365 C38.1430975 7.17528739 41.80297777 7.1615991 45.46289062 7.14648438 C52.64209356 7.11432449 59.82099554 7.06313153 67 7 C66.67 7.99 66.34 8.98 66 10 C58.00265109 10.11597526 50.00565491 10.20475511 42.00767231 10.25906086 C38.29363057 10.28512841 34.58016514 10.32047209 30.86645508 10.37719727 C27.28080287 10.43162214 23.69570409 10.46144192 20.10967064 10.47438622 C18.74329098 10.48360764 17.37694081 10.50161581 16.0107975 10.52865028 C3.95389782 10.75770118 3.95389782 10.75770118 0.61010742 7.64526367 C-1 5 -1 5 -0.8125 2.1875 C-0.544375 1.465625 -0.27625 0.74375 0 0 Z " fill="#440E62" transform="translate(181,110)"/>
<path d="M0 0 C0.90492188 0.02320313 1.80984375 0.04640625 2.7421875 0.0703125 C4.10730469 0.09738281 4.10730469 0.09738281 5.5 0.125 C6.19867188 0.14820313 6.89734375 0.17140625 7.6171875 0.1953125 C7.12487981 6.5953125 7.12487981 6.5953125 4.5546875 9.6328125 C3.9153125 10.1484375 3.2759375 10.6640625 2.6171875 11.1953125 C-1.12165582 8.53876593 -3.03259424 6.61420863 -4.3828125 2.1953125 C-2.3828125 0.1953125 -2.3828125 0.1953125 0 0 Z " fill="#EBB398" transform="translate(134.3828125,130.8046875)"/>
<path d="M0 0 C3.0625 0.1875 3.0625 0.1875 5.0625 2.1875 C5.3125 4.6875 5.3125 4.6875 5.0625 7.1875 C3.0625 9.1875 3.0625 9.1875 0.0625 9.5 C-0.9275 9.396875 -1.9175 9.29375 -2.9375 9.1875 C-4.9375 6.1875 -4.9375 6.1875 -4.625 3.5625 C-3.63731654 0.1505026 -3.65603948 0.23336422 0 0 Z " fill="#F7E4C6" transform="translate(306.9375,41.8125)"/>
<path d="M0 0 C2.875 -0.125 2.875 -0.125 6 0 C8 2 8 2 8.1875 5.0625 C8 8 8 8 7 9 C4.66702567 9.04092937 2.33294775 9.04241723 0 9 C-1.125 6.75 -1.125 6.75 -2 4 C-1.125 1.6875 -1.125 1.6875 0 0 Z " fill="#F7E6C6" transform="translate(291,42)"/>
<path d="M0 0 C2.9375 0.1875 2.9375 0.1875 3.9375 1.1875 C4.0625 4.6875 4.0625 4.6875 3.9375 8.1875 C2.9375 9.1875 2.9375 9.1875 -0.5625 9.3125 C-4.0625 9.1875 -4.0625 9.1875 -5.0625 8.1875 C-5.25 5.25 -5.25 5.25 -5.0625 2.1875 C-3.0625 0.1875 -3.0625 0.1875 0 0 Z " fill="#F7E5C5" transform="translate(282.0625,41.8125)"/>
<path d="M0 0 C7.92 0 15.84 0 24 0 C24 0.99 24 1.98 24 3 C16.08 3 8.16 3 0 3 C0 2.01 0 1.02 0 0 Z " fill="#4D1968" transform="translate(189,110)"/>
<path d="M0 0 C6.6 0 13.2 0 20 0 C20 0.99 20 1.98 20 3 C13.73 3 7.46 3 1 3 C0.67 2.01 0.34 1.02 0 0 Z " fill="#FEFCF9" transform="translate(67,146)"/>
<path d="M0 0 C6.6 0 13.2 0 20 0 C20 0.99 20 1.98 20 3 C13.73 3 7.46 3 1 3 C0.67 2.01 0.34 1.02 0 0 Z " fill="#FEFDFA" transform="translate(67,111)"/>
<path d="M0 0 C6.27 0 12.54 0 19 0 C19 0.99 19 1.98 19 3 C12.73 3 6.46 3 0 3 C0 2.01 0 1.02 0 0 Z " fill="#FEFDFB" transform="translate(68,134)"/>
<path d="M0 0 C1.875 0.6875 1.875 0.6875 2.875 1.6875 C3.0625 4.125 3.0625 4.125 2.875 6.6875 C2.215 7.3475 1.555 8.0075 0.875 8.6875 C-1.75 8.3125 -1.75 8.3125 -4.125 7.6875 C-4.455 5.7075 -4.785 3.7275 -5.125 1.6875 C-2.125 -0.3125 -2.125 -0.3125 0 0 Z " fill="#E5B44D" transform="translate(116.125,71.3125)"/>
<path d="M0 0 C2.93453261 0.36681658 3.86437246 0.86437246 6 3 C5.63318342 5.93453261 5.13562754 6.86437246 3 9 C0.06546739 8.63318342 -0.86437246 8.13562754 -3 6 C-2.63318342 3.06546739 -2.13562754 2.13562754 0 0 Z " fill="#EE8769" transform="translate(101,71)"/>
<path d="M0 0 C4.55555556 0.55555556 4.55555556 0.55555556 6 2 C6.125 4.5 6.125 4.5 6 7 C5 8 5 8 2 8.125 C-1 8 -1 8 -2 7 C-2.1875 4.5625 -2.1875 4.5625 -2 2 C-1.34 1.34 -0.68 0.68 0 0 Z " fill="#9ACBEC" transform="translate(126,71)"/>
<path d="M0 0 C4.62 0 9.24 0 14 0 C14 0.99 14 1.98 14 3 C9.38 3 4.76 3 0 3 C0 2.01 0 1.02 0 0 Z " fill="#4D1968" transform="translate(216,110)"/>
<path d="M0 0 C2.0625 0.4375 2.0625 0.4375 4 1 C3.67 2.65 3.34 4.3 3 6 C1.68 5.67 0.36 5.34 -1 5 C-1 1 -1 1 0 0 Z " fill="#FEFCF9" transform="translate(59,156)"/>
<path d="M0 0 C0.66 0.33 1.32 0.66 2 1 C2 1.66 2 2.32 2 3 C1 4 0 5 -1 6 C-2.17574711 8.09989652 -2.17574711 8.09989652 -3 10 C-3.66 9.34 -4.32 8.68 -5 8 C-4.875 5.5625 -4.875 5.5625 -4 3 C-1.9375 1.1875 -1.9375 1.1875 0 0 Z " fill="#4B196B" transform="translate(185,129)"/>
<path d="M0 0 C2.0625 0.4375 2.0625 0.4375 4 1 C3.67 2.65 3.34 4.3 3 6 C1.68 5.67 0.36 5.34 -1 5 C-1 1 -1 1 0 0 Z " fill="#FEFCF9" transform="translate(59,121)"/>
<path d="M0 0 C1.65 0 3.3 0 5 0 C4.67 1.65 4.34 3.3 4 5 C2.35 4.67 0.7 4.34 -1 4 C-0.67 2.68 -0.34 1.36 0 0 Z " fill="#FEFCF9" transform="translate(58,145)"/>
<path d="M0 0 C1.67542976 0.28604898 3.34385343 0.61781233 5 1 C5 2.32 5 3.64 5 5 C3.35 5 1.7 5 0 5 C-0.5625 3.0625 -0.5625 3.0625 -1 1 C-0.67 0.67 -0.34 0.34 0 0 Z " fill="#FEFCF9" transform="translate(58,133)"/>
<path d="M0 0 C1.65 0.33 3.3 0.66 5 1 C4.67 2.32 4.34 3.64 4 5 C2.35 4.67 0.7 4.34 -1 4 C-0.67 2.68 -0.34 1.36 0 0 Z " fill="#FEFDFA" transform="translate(58,110)"/>
</svg>
